<?xml version="1.0" standalone="no"?>
<!DOCTYPE svg PUBLIC "-//W3C//DTD SVG 20010904//EN"
 "http://www.w3.org/TR/2001/REC-SVG-20010904/DTD/svg10.dtd">
<svg version="1.0" xmlns="http://www.w3.org/2000/svg"
 width="384.000000pt" height="193.000000pt" viewBox="0 0 384.000000 193.000000"
 preserveAspectRatio="xMidYMid meet">

<g transform="translate(0.000000,193.000000) scale(0.100000,-0.100000)"
fill="#000000" stroke="none">
<path d="M963 1320 c-13 -5 -32 -24 -43 -42 -21 -33 -21 -46 -5 -139 7 -35 6
-35 -36 -48 -23 -7 -54 -25 -69 -40 -23 -23 -63 -117 -75 -178 -5 -26 39 -95
93 -147 30 -29 39 -43 33 -55 -5 -9 -12 -46 -16 -83 l-7 -68 -224 0 c-192 0
-224 -2 -224 -15 0 -13 32 -15 231 -15 l230 0 59 51 c45 40 70 74 110 150 28
55 57 99 64 99 7 0 48 -9 91 -20 95 -24 119 -25 140 -3 27 27 12 74 -54 173
-55 83 -59 91 -48 119 25 66 -63 113 -113 59 -27 -30 -34 -18 -16 27 48 114
-23 214 -121 175z m77 -30 c10 -5 23 -25 30 -44 9 -28 7 -42 -10 -85 -24 -62
-26 -91 -4 -91 9 0 14 -3 12 -7 -35 -78 -60 -112 -88 -118 -40 -9 -55 -38 -40
-75 9 -21 9 -34 0 -49 -6 -12 -13 -21 -15 -21 -2 0 -18 20 -35 45 -17 25 -37
45 -45 45 -23 0 -19 -10 40 -90 60 -82 66 -100 33 -100 -25 0 -133 105 -148
144 -7 19 -3 43 15 97 31 90 42 102 110 124 30 9 57 20 59 23 2 4 -2 30 -10
57 -20 74 -17 103 11 130 26 26 54 31 85 15z m150 -190 c15 -27 -24 -105 -47
-96 -13 5 -14 4 -3 -9 8 -9 8 -15 2 -15 -6 0 -14 5 -17 10 -3 6 -11 10 -18 10
-6 0 -1 -7 11 -16 21 -14 21 -17 7 -45 -18 -34 -16 -33 -61 -14 l-35 14 16 31
c8 16 23 30 33 30 15 0 15 2 2 10 -12 8 -12 10 5 10 15 0 17 2 7 9 -11 7 -9
17 12 50 30 46 67 56 86 21z m59 -194 c84 -130 63 -148 -114 -96 -156 45 -192
67 -162 98 15 14 23 12 97 -17 97 -38 140 -48 140 -32 0 6 -6 14 -12 16 -7 2
-26 9 -41 15 l-28 10 27 50 c15 28 31 47 35 43 4 -5 30 -44 58 -87z m-232 -88
c15 -7 29 -13 31 -14 6 -3 -82 -174 -90 -174 -4 0 -22 9 -40 20 l-33 20 32 0
c44 0 59 27 39 73 -11 29 -11 37 1 60 15 31 21 32 60 15z m-97 -196 l22 -17
-21 -19 c-25 -23 -51 -14 -51 17 0 41 16 47 50 19z"/>
<path d="M2323 1134 c-8 -21 13 -42 28 -27 13 13 5 43 -11 43 -6 0 -13 -7 -17
-16z"/>
<path d="M2673 1134 c-8 -21 13 -42 28 -27 13 13 5 43 -11 43 -6 0 -13 -7 -17
-16z"/>
<path d="M1530 1133 c0 -5 27 -90 61 -190 48 -144 64 -183 78 -183 14 0 28 35
70 165 28 91 54 165 56 165 2 0 28 -74 56 -165 42 -130 56 -165 70 -165 14 0
30 39 78 183 34 100 61 185 61 190 0 4 -6 7 -14 7 -9 0 -28 -46 -55 -132 -23
-73 -48 -151 -55 -173 l-13 -40 -55 170 c-72 223 -74 224 -141 8 -28 -90 -54
-163 -57 -163 -3 0 -29 74 -58 165 -37 115 -57 165 -67 165 -8 0 -15 -3 -15
-7z"/>
<path d="M2480 1070 c0 -33 -3 -40 -20 -40 -11 0 -20 -4 -20 -10 0 -5 9 -10
20 -10 19 0 20 -7 20 -101 0 -55 4 -109 10 -119 12 -23 52 -33 84 -20 37 14
33 33 -4 25 -52 -11 -60 5 -60 116 l0 99 45 0 c25 0 45 5 45 10 0 6 -20 10
-45 10 l-45 0 0 40 c0 29 -4 40 -15 40 -11 0 -15 -11 -15 -40z"/>
<path d="M2130 900 c0 -118 2 -140 15 -140 12 0 15 16 15 88 0 103 20 149 70
159 17 3 30 12 30 19 0 24 -40 15 -71 -15 l-29 -29 0 29 c0 19 -5 29 -15 29
-13 0 -15 -22 -15 -140z"/>
<path d="M2330 900 c0 -118 2 -140 15 -140 13 0 15 22 15 140 0 118 -2 140
-15 140 -13 0 -15 -22 -15 -140z"/>
<path d="M2680 900 c0 -87 4 -140 10 -140 6 0 10 53 10 140 0 87 -4 140 -10
140 -6 0 -10 -53 -10 -140z"/>
<path d="M2820 900 c0 -118 2 -140 15 -140 12 0 15 17 15 96 0 92 1 97 29 125
22 21 39 29 66 29 75 0 95 -34 95 -166 0 -68 3 -84 15 -84 12 0 15 17 15 95 0
152 -27 192 -123 182 -39 -3 -56 -11 -74 -31 l-23 -27 0 30 c0 21 -5 31 -15
31 -13 0 -15 -22 -15 -140z"/>
<path d="M3214 1030 c-12 -4 -31 -20 -42 -35 -66 -84 -11 -215 89 -215 42 0
99 23 99 40 0 6 5 10 11 10 8 0 10 -16 6 -47 -9 -84 -88 -124 -167 -85 -46 22
-64 12 -24 -14 41 -27 122 -29 162 -4 52 32 62 70 62 225 0 113 -2 135 -15
135 -9 0 -15 -9 -15 -25 0 -14 -4 -25 -10 -25 -5 0 -10 4 -10 8 0 4 -13 15
-29 25 -31 18 -82 21 -117 7z m135 -45 c21 -21 26 -35 26 -76 0 -45 -4 -54
-33 -80 -47 -42 -93 -40 -139 6 -33 33 -35 39 -30 81 5 46 27 80 62 95 32 14
87 2 114 -26z"/>
</g>
</svg>
